<?xml version="1.0" encoding="utf-8"?>
<!-- Generator: Adobe Illustrator 19.2.1, SVG Export Plug-In . SVG Version: 6.00 Build 0)  -->
<svg version="1.1" id="Layer_1" xmlns="http://www.w3.org/2000/svg" xmlns:xlink="http://www.w3.org/1999/xlink" x="0px" y="0px"
	 viewBox="0 0 175 47" style="enable-background:new 0 0 175 47;" xml:space="preserve">
<style type="text/css">
	.st0{fill:#181431;}
	.st1{fill:#FFFFFF;}
</style>
<g>
	<g>
		<rect x="2.3" y="2.9" class="st0" width="170.3" height="41.1"/>
		<path class="st1" d="M173.6,45H1.4V2h172.2V45z M3.2,43.2h168.5V3.9H3.2V43.2z"/>
	</g>
	<g>
		<g>
			<path class="st1" d="M27,13.7c0.2,0,0.3,0.1,0.4,0.2c0.1,0.1,0.2,0.2,0.2,0.4v18.5c0,0.2-0.1,0.3-0.2,0.4
				c-0.1,0.1-0.2,0.2-0.4,0.2h-3.9c-0.2,0-0.3-0.1-0.4-0.2c-0.1-0.1-0.2-0.2-0.2-0.4v-6.4c0-0.2-0.1-0.3-0.2-0.4
				c-0.1-0.1-0.2-0.2-0.4-0.2h-5.5c-0.2,0-0.3,0.1-0.4,0.2C16.1,26,16,26.1,16,26.3v6.4c0,0.4-0.2,0.5-0.5,0.5h-3.9
				c-0.4,0-0.5-0.2-0.5-0.5V14.2c0-0.4,0.2-0.5,0.5-0.5h3.9c0.4,0,0.5,0.2,0.5,0.5v6.3c0,0.4,0.2,0.5,0.5,0.5h5.5
				c0.2,0,0.3-0.1,0.4-0.2c0.1-0.1,0.2-0.2,0.2-0.4v-6.3c0-0.2,0.1-0.3,0.2-0.4c0.1-0.1,0.2-0.2,0.4-0.2H27z"/>
		</g>
		<g>
			<path class="st1" d="M45.1,13.7c0.5,0,0.9,0.1,1.3,0.3c0.4,0.2,0.8,0.4,1.1,0.7c0.3,0.3,0.5,0.6,0.7,1.1c0.2,0.4,0.3,0.8,0.3,1.3
				v15.8c0,0.2-0.1,0.3-0.2,0.4s-0.2,0.2-0.4,0.2H44c-0.2,0-0.3-0.1-0.4-0.2c-0.1-0.1-0.2-0.2-0.2-0.4v-5c0-0.2-0.1-0.3-0.2-0.4
				c-0.1-0.1-0.2-0.2-0.4-0.2h-5.5c-0.2,0-0.3,0.1-0.4,0.2c-0.1,0.1-0.2,0.2-0.2,0.4v5c0,0.4-0.2,0.5-0.5,0.5h-3.9
				c-0.4,0-0.5-0.2-0.5-0.5V17c0-0.5,0.1-0.9,0.2-1.3s0.4-0.8,0.7-1.1c0.3-0.3,0.7-0.5,1.1-0.7s0.8-0.3,1.3-0.3L45.1,13.7L45.1,13.7
				z M43.4,23v-4.9h-6.6V23H43.4z"/>
		</g>
		<g>
			<path class="st1" d="M57.8,18.6c-0.1,0.1-0.2,0.2-0.2,0.4v9.1c0,0.2,0.1,0.3,0.2,0.4c0.1,0.1,0.2,0.2,0.4,0.2h9
				c0.2,0,0.3,0.1,0.4,0.2c0.1,0.1,0.2,0.2,0.2,0.4v3.7c0,0.2-0.1,0.3-0.2,0.4c-0.1,0.1-0.2,0.2-0.4,0.2h-5.8h-4.9H56
				c-0.5,0-0.9-0.1-1.3-0.2s-0.8-0.4-1.1-0.7c-0.3-0.3-0.5-0.7-0.7-1.1c-0.2-0.4-0.2-0.8-0.2-1.3v-0.5v-2V21v-1.8V17
				c0-0.5,0.1-0.9,0.2-1.3c0.2-0.4,0.4-0.8,0.7-1.1c0.3-0.3,0.7-0.5,1.1-0.7s0.8-0.3,1.3-0.3h0.5h10.7c0.2,0,0.3,0.1,0.4,0.2
				c0.1,0.1,0.2,0.2,0.2,0.4v3.7c0,0.2-0.1,0.3-0.2,0.4c-0.1,0.1-0.2,0.2-0.4,0.2h-9C58.1,18.5,57.9,18.5,57.8,18.6z"/>
		</g>
		<g>
			<path class="st1" d="M83.3,21.9c-0.1,0.1-0.1,0.2,0,0.2l6.5,10.7c0.1,0.2,0.1,0.2,0,0.3c-0.1,0.1-0.2,0.2-0.3,0.2h-4.6
				c-0.2,0-0.3-0.1-0.5-0.2c-0.2-0.1-0.2-0.2-0.3-0.3l-4.2-7.7c-0.1-0.1-0.1-0.1-0.2,0l-2.4,2.6c-0.1,0.1-0.2,0.2-0.2,0.4
				c-0.1,0.2-0.1,0.3-0.1,0.5v4.2c0,0.4-0.2,0.5-0.5,0.5h-3.9c-0.4,0-0.5-0.2-0.5-0.5V14.3c0-0.4,0.2-0.5,0.5-0.5h3.9
				c0.4,0,0.5,0.2,0.5,0.5v8.3l7.2-8.4c0.1-0.1,0.2-0.2,0.4-0.3c0.2-0.1,0.3-0.1,0.5-0.1h4.6c0.2,0,0.2,0,0.3,0.1
				c0,0.1,0,0.2-0.1,0.3L83.3,21.9z"/>
		</g>
		<g>
			<path class="st1" d="M108,18.6c-0.1,0.1-0.2,0.2-0.2,0.4v9.1c0,0.2,0.1,0.3,0.2,0.4c0.1,0.1,0.2,0.2,0.4,0.2h9
				c0.2,0,0.3,0.1,0.4,0.2c0.1,0.1,0.2,0.2,0.2,0.4v3.7c0,0.2-0.1,0.3-0.2,0.4c-0.1,0.1-0.2,0.2-0.4,0.2h-5.8h-4.9h-0.5
				c-0.5,0-0.9-0.1-1.3-0.2s-0.8-0.4-1.1-0.7c-0.3-0.3-0.5-0.7-0.7-1.1s-0.2-0.8-0.2-1.3v-0.5v-2V21v-1.8V17c0-0.5,0.1-0.9,0.2-1.3
				s0.4-0.8,0.7-1.1c0.3-0.3,0.7-0.5,1.1-0.7s0.8-0.3,1.3-0.3h0.5h10.7c0.2,0,0.3,0.1,0.4,0.2c0.1,0.1,0.2,0.2,0.2,0.4v3.7
				c0,0.2-0.1,0.3-0.2,0.4c-0.1,0.1-0.2,0.2-0.4,0.2h-9C108.2,18.5,108.1,18.5,108,18.6z"/>
		</g>
		<g>
			<path class="st1" d="M127.3,32.8c0,0.4-0.2,0.5-0.5,0.5h-3.9c-0.4,0-0.5-0.2-0.5-0.5V14.3c0-0.4,0.2-0.5,0.5-0.5h3.9
				c0.4,0,0.5,0.2,0.5,0.5V32.8z"/>
		</g>
		<g>
			<path class="st1" d="M145.5,17.9c0,0.2-0.1,0.3-0.2,0.4c-0.1,0.1-0.2,0.2-0.4,0.2H141c-0.2,0-0.3,0.1-0.4,0.2
				c-0.1,0.1-0.2,0.2-0.2,0.4v13.8c0,0.2-0.1,0.3-0.2,0.4c-0.1,0.1-0.2,0.2-0.4,0.2h-3.9c-0.2,0-0.3-0.1-0.4-0.2
				c-0.1-0.1-0.2-0.2-0.2-0.4V19c0-0.2-0.1-0.3-0.2-0.4s-0.2-0.2-0.4-0.2h-3.9c-0.2,0-0.3-0.1-0.4-0.2c-0.1-0.1-0.2-0.2-0.2-0.4
				v-3.7c0-0.4,0.2-0.5,0.5-0.5h3.9h1.1h3.9h1.1h3.9c0.2,0,0.3,0.1,0.4,0.2c0.1,0.1,0.2,0.2,0.2,0.4V17.9z"/>
		</g>
		<g>
			<path class="st1" d="M163.8,13.8c0.1,0.1,0.2,0.2,0.2,0.4v10c0,0.5-0.1,0.9-0.3,1.3c-0.2,0.4-0.4,0.8-0.7,1.1
				c-0.3,0.3-0.6,0.5-1.1,0.7c-0.4,0.2-0.8,0.3-1.3,0.3h-2.1v5.2c0,0.2-0.1,0.3-0.2,0.4c-0.1,0.1-0.2,0.2-0.4,0.2h-3.9
				c-0.2,0-0.3-0.1-0.4-0.2c-0.1-0.1-0.2-0.2-0.2-0.4v-5.2h-2.1c-0.5,0-0.9-0.1-1.3-0.3c-0.4-0.2-0.8-0.4-1.1-0.7
				c-0.3-0.3-0.5-0.6-0.7-1.1c-0.2-0.4-0.2-0.8-0.2-1.3v-10c0-0.4,0.2-0.5,0.5-0.5h3.7c0.2,0,0.3,0.1,0.4,0.2
				c0.1,0.1,0.2,0.2,0.2,0.4v8.3c0,0.2,0.1,0.3,0.2,0.4c0.1,0.1,0.2,0.2,0.4,0.2h5.2c0.4,0,0.5-0.2,0.5-0.5v-8.3
				c0-0.4,0.2-0.5,0.5-0.5h3.7C163.6,13.7,163.6,13.8,163.8,13.8z"/>
		</g>
	</g>
</g>
</svg>
