<?xml version="1.0" encoding="utf-8"?>
<!-- Generator: Adobe Illustrator 19.2.1, SVG Export Plug-In . SVG Version: 6.00 Build 0)  -->
<svg version="1.1" id="Layer_1" xmlns="http://www.w3.org/2000/svg" xmlns:xlink="http://www.w3.org/1999/xlink" x="0px" y="0px"
	 viewBox="0 0 463 165" style="enable-background:new 0 0 463 165;" xml:space="preserve">
<style type="text/css">
	.st0{fill:#FFFFFF;}
	.st1{fill:#6258A6;}
	.st2{fill:#969696;}
	.st3{fill:none;}
	.st4{fill:#343F49;}
	.st5{fill:#E9537A;}
	.st6{fill:#82D1E9;}
	.st7{fill:#B4D337;}
	.st8{fill:#6B67A3;}
	.st9{fill:#E0E0DE;}
	.st10{fill:#2D3841;stroke:#E0E0DE;stroke-miterlimit:10;}
	.st11{fill:#BEBEC0;}
	.st12{fill:#2D3841;}
</style>
<g>
	<g>
		<rect x="57.5" y="34.6" class="st0" width="78.9" height="120.6"/>
		<rect x="5" y="68.2" class="st0" width="52.5" height="87.1"/>
		<rect x="57.5" y="34.5" class="st1" width="61.3" height="9.7"/>
		<rect x="5" y="68.2" class="st1" width="52.5" height="9.7"/>
		<rect x="63.2" y="51.1" class="st1" width="50" height="23.3"/>
		<rect x="10.3" y="84" class="st1" width="42.1" height="23.3"/>
		<rect x="10.3" y="134" class="st1" width="18.3" height="18.3"/>
		<g>
			<rect x="90.9" y="103" class="st1" width="22.3" height="18.3"/>
		</g>
		<g>
			<rect x="63.2" y="103" class="st1" width="22.3" height="18.3"/>
		</g>
		<g>
			<rect x="63.2" y="79.8" class="st2" width="50" height="1.3"/>
			<rect x="63.2" y="82.4" class="st2" width="50" height="1.3"/>
			<rect x="63.2" y="85.1" class="st2" width="50" height="1.3"/>
			<rect x="63.2" y="87.8" class="st2" width="50" height="1.3"/>
			<rect x="63.2" y="90.5" class="st2" width="50" height="1.3"/>
			<rect x="63.2" y="93.2" class="st2" width="50" height="1.3"/>
			<rect x="63.2" y="95.9" class="st2" width="50" height="1.3"/>
			<rect x="63.2" y="98.5" class="st2" width="33.9" height="1.3"/>
		</g>
		<g>
			<rect x="10.3" y="111.2" class="st2" width="42.1" height="1.3"/>
			<rect x="10.3" y="113.9" class="st2" width="42.1" height="1.3"/>
			<rect x="10.3" y="116.5" class="st2" width="42.1" height="1.3"/>
			<rect x="10.3" y="119.2" class="st2" width="42.1" height="1.3"/>
			<rect x="10.3" y="121.9" class="st2" width="42.1" height="1.3"/>
			<rect x="10.3" y="124.6" class="st2" width="42.1" height="1.3"/>
			<rect x="10.3" y="127.3" class="st2" width="42.1" height="1.3"/>
			<rect x="10.3" y="129.9" class="st2" width="38.9" height="1.3"/>
		</g>
		<g>
			<rect x="63.2" y="124.4" class="st2" width="22.3" height="1.3"/>
			<rect x="63.2" y="127.1" class="st2" width="22.3" height="1.3"/>
			<rect x="63.2" y="129.7" class="st2" width="22.3" height="1.3"/>
			<rect x="63.2" y="132.4" class="st2" width="22.3" height="1.3"/>
			<rect x="63.2" y="135" class="st2" width="22.3" height="1.3"/>
			<rect x="63.2" y="137.8" class="st2" width="22.3" height="1.3"/>
			<rect x="63.2" y="140.4" class="st2" width="22.3" height="1.3"/>
			<rect x="63.2" y="143.1" class="st2" width="15.2" height="1.3"/>
		</g>
		<g>
			<rect x="31.3" y="134" class="st2" width="21.1" height="1.3"/>
			<rect x="31.3" y="136.6" class="st2" width="21.1" height="1.3"/>
			<rect x="31.3" y="139.3" class="st2" width="21.1" height="1.3"/>
			<rect x="31.3" y="141.9" class="st2" width="21.1" height="1.3"/>
			<rect x="31.3" y="144.7" class="st2" width="21.1" height="1.3"/>
			<rect x="31.3" y="147.3" class="st2" width="21.1" height="1.3"/>
			<rect x="31.3" y="150" class="st2" width="10.5" height="1.3"/>
		</g>
		<g>
			<rect x="90.9" y="124.4" class="st2" width="22.3" height="1.3"/>
			<rect x="90.9" y="127.1" class="st2" width="22.3" height="1.3"/>
			<rect x="90.9" y="129.7" class="st2" width="22.3" height="1.3"/>
			<rect x="90.9" y="132.4" class="st2" width="22.3" height="1.3"/>
			<rect x="90.9" y="135" class="st2" width="22.3" height="1.3"/>
			<rect x="90.9" y="137.8" class="st2" width="22.3" height="1.3"/>
			<rect x="90.9" y="140.4" class="st2" width="22.3" height="1.3"/>
			<rect x="90.9" y="143.1" class="st2" width="20.5" height="1.3"/>
		</g>
		<g>
			<g>
				<path class="st0" d="M88.2,67.6c-2.7,0-4.9-2.2-4.9-4.9c0-2.7,2.2-4.9,4.9-4.9c2.7,0,4.9,2.2,4.9,4.9
					C93.1,65.5,90.9,67.6,88.2,67.6z M88.2,58.3c-2.5,0-4.5,2-4.5,4.5c0,2.5,2,4.5,4.5,4.5s4.5-2,4.5-4.5
					C92.6,60.3,90.6,58.3,88.2,58.3z"/>
			</g>
			<polygon class="st0" points="87.3,61.6 87.3,64 89.4,62.8 			"/>
		</g>
		<g>
			<g>
				<path class="st0" d="M31.3,100.5c-2.7,0-4.9-2.2-4.9-4.9c0-2.7,2.2-4.9,4.9-4.9s4.9,2.2,4.9,4.9C36.2,98.3,34,100.5,31.3,100.5z
					 M31.3,91.2c-2.5,0-4.5,2-4.5,4.5s2,4.5,4.5,4.5s4.5-2,4.5-4.5S33.7,91.2,31.3,91.2z"/>
			</g>
			<polygon class="st0" points="30.4,94.5 30.4,96.9 32.5,95.7 			"/>
		</g>
		<line class="st3" x1="57.5" y1="34.6" x2="57.5" y2="155.2"/>
	</g>
	<g>
		<g>
			<rect x="325.1" y="34.5" class="st4" width="80.4" height="120.6"/>
			<rect x="405.5" y="68.1" class="st4" width="52.5" height="87.1"/>
		</g>
		<line class="st3" x1="405.5" y1="34.5" x2="405.5" y2="155.2"/>
		<rect x="351.6" y="43.7" class="st2" width="21.6" height="2.5"/>
		<rect x="351.6" y="47.2" class="st2" width="40.3" height="2.5"/>
		<rect x="351.6" y="50.6" class="st2" width="35.2" height="2.5"/>
		<rect x="351.6" y="54.1" class="st5" width="20.1" height="2.5"/>
		<rect x="369.9" y="57.6" class="st6" width="15.9" height="2.5"/>
		<rect x="355.4" y="57.6" class="st6" width="13.4" height="2.5"/>
		<rect x="355.4" y="61" class="st7" width="18.7" height="2.5"/>
		<rect x="375.1" y="61" class="st8" width="4.5" height="2.5"/>
		<rect x="375.5" y="74.9" class="st8" width="9.6" height="2.5"/>
		<rect x="369.1" y="78.5" class="st8" width="7.6" height="2.5"/>
		<rect x="373.9" y="92.4" class="st8" width="8.9" height="2.5"/>
		<rect x="379.1" y="102.7" class="st8" width="11.4" height="2.5"/>
		<rect x="374" y="106.2" class="st8" width="6.8" height="2.5"/>
		<rect x="381.8" y="106.2" class="st5" width="9.7" height="2.5"/>
		<rect x="378" y="120.1" class="st8" width="5.4" height="2.5"/>
		<rect x="373.8" y="127.1" class="st8" width="4.7" height="2.5"/>
		<rect x="366.7" y="130.6" class="st8" width="7.4" height="2.5"/>
		<rect x="372" y="123.6" class="st6" width="10.8" height="2.5"/>
		<rect x="377.7" y="78.5" class="st5" width="7.4" height="2.5"/>
		<rect x="383.8" y="92.4" class="st5" width="6.2" height="2.5"/>
		<rect x="362.9" y="113.2" class="st7" width="7" height="2.5"/>
		<rect x="391.5" y="102.7" class="st5" width="2.6" height="2.5"/>
		<rect x="384.4" y="120.1" class="st5" width="1.6" height="2.5"/>
		<rect x="379.5" y="127.1" class="st5" width="2.5" height="2.5"/>
		<rect x="375.1" y="130.6" class="st5" width="7.4" height="2.5"/>
		<rect x="355.4" y="64.6" class="st5" width="13.9" height="2.5"/>
		<rect x="370.3" y="64.6" class="st6" width="11.5" height="2.5"/>
		<rect x="351.6" y="68" class="st0" width="2.1" height="2.5"/>
		<rect x="365.2" y="71.5" class="st0" width="1.9" height="2.5"/>
		<rect x="372.8" y="54.1" class="st0" width="1.6" height="2.5"/>
		<rect x="382.8" y="64.6" class="st0" width="1.6" height="2.5"/>
		<rect x="351.6" y="71.5" class="st5" width="12.6" height="2.5"/>
		<rect x="355.4" y="74.9" class="st6" width="19.1" height="2.5"/>
		<rect x="355.4" y="78.5" class="st7" width="12.7" height="2.5"/>
		<rect x="355.4" y="81.9" class="st6" width="10" height="2.5"/>
		<rect x="366.3" y="81.9" class="st6" width="15" height="2.5"/>
		<rect x="381.8" y="99.3" class="st6" width="13.1" height="2.5"/>
		<rect x="355.4" y="92.4" class="st6" width="17.5" height="2.5"/>
		<rect x="355.4" y="95.8" class="st6" width="19.5" height="2.5"/>
		<rect x="375.8" y="95.8" class="st6" width="15.2" height="2.5"/>
		<rect x="355.4" y="99.3" class="st7" width="25.3" height="2.5"/>
		<rect x="355.4" y="102.7" class="st6" width="22.7" height="2.5"/>
		<rect x="355.4" y="106.2" class="st6" width="17.6" height="2.5"/>
		<rect x="351.6" y="113.2" class="st5" width="10.2" height="2.5"/>
		<rect x="355.4" y="116.6" class="st6" width="12.7" height="2.5"/>
		<rect x="369.1" y="116.6" class="st6" width="11.7" height="2.5"/>
		<rect x="355.4" y="120.1" class="st7" width="21.6" height="2.5"/>
		<rect x="355.4" y="123.6" class="st6" width="15.6" height="2.5"/>
		<rect x="355.4" y="127.1" class="st6" width="17.5" height="2.5"/>
		<rect x="355.4" y="130.6" class="st6" width="10.3" height="2.5"/>
		<rect x="351.6" y="137.5" class="st7" width="5.9" height="2.5"/>
		<rect x="351.6" y="140.9" class="st5" width="7.7" height="2.5"/>
		<rect x="386.1" y="74.9" class="st5" width="2.5" height="2.5"/>
		<rect x="389.7" y="74.9" class="st0" width="0.8" height="2.5"/>
		<rect x="382.4" y="81.9" class="st0" width="1.9" height="2.5"/>
		<rect x="392.1" y="95.8" class="st0" width="3" height="2.5"/>
		<rect x="395.1" y="102.7" class="st0" width="2.1" height="2.5"/>
		<rect x="351.6" y="85.4" class="st0" width="2.1" height="2.5"/>
		<rect x="351.6" y="88.8" class="st7" width="10.1" height="2.5"/>
		<rect x="362.7" y="88.8" class="st0" width="2.3" height="2.5"/>
		<rect x="392.5" y="106.2" class="st0" width="0.8" height="2.5"/>
		<rect x="386.9" y="120.1" class="st0" width="2.1" height="2.5"/>
		<rect x="383" y="127.1" class="st0" width="0.8" height="2.5"/>
		<rect x="351.6" y="109.7" class="st0" width="2.1" height="2.5"/>
		<rect x="370.9" y="113.2" class="st0" width="2.1" height="2.5"/>
		<rect x="381.8" y="116.6" class="st0" width="0.8" height="2.5"/>
		<rect x="351.6" y="134" class="st0" width="2.1" height="2.5"/>
		<rect x="411.6" y="73.9" class="st2" width="15" height="2.5"/>
		<rect x="411.6" y="77.5" class="st2" width="17.1" height="2.5"/>
		<rect x="411.6" y="80.9" class="st2" width="26.8" height="2.5"/>
		<rect x="411.6" y="84.4" class="st7" width="17.1" height="2.5"/>
		<rect x="426" y="87.9" class="st6" width="9.2" height="2.5"/>
		<rect x="414.8" y="87.9" class="st5" width="10.2" height="2.5"/>
		<rect x="414.8" y="91.4" class="st6" width="9.7" height="2.5"/>
		<rect x="425.5" y="91.4" class="st8" width="3.9" height="2.5"/>
		<rect x="430.2" y="105.2" class="st8" width="6.7" height="2.5"/>
		<rect x="426.4" y="108.7" class="st8" width="6.1" height="2.5"/>
		<rect x="436.4" y="122.6" class="st8" width="8.5" height="2.5"/>
		<rect x="438.9" y="133" class="st8" width="6.9" height="2.5"/>
		<rect x="429.4" y="136.5" class="st8" width="4.8" height="2.5"/>
		<rect x="435.2" y="136.5" class="st5" width="7" height="2.5"/>
		<rect x="430.3" y="91.4" class="st5" width="7.3" height="2.5"/>
		<rect x="433.5" y="108.7" class="st5" width="5.8" height="2.5"/>
		<rect x="445.9" y="122.6" class="st5" width="3.6" height="2.5"/>
		<rect x="446.7" y="133" class="st5" width="2.3" height="2.5"/>
		<rect x="414.8" y="94.8" class="st6" width="13" height="2.5"/>
		<rect x="428.8" y="94.8" class="st6" width="11" height="2.5"/>
		<rect x="411.6" y="98.3" class="st0" width="2.5" height="2.5"/>
		<rect x="418.6" y="101.8" class="st0" width="2.3" height="2.5"/>
		<rect x="429.7" y="84.4" class="st0" width="2" height="2.5"/>
		<rect x="411.6" y="101.8" class="st7" width="6" height="2.5"/>
		<rect x="414.8" y="105.2" class="st6" width="14.4" height="2.5"/>
		<rect x="414.8" y="108.7" class="st7" width="10.8" height="2.5"/>
		<rect x="414.8" y="112.2" class="st6" width="13.4" height="2.5"/>
		<rect x="429.2" y="112.2" class="st6" width="14.1" height="2.5"/>
		<rect x="433.5" y="129.6" class="st6" width="16.1" height="2.5"/>
		<rect x="414.8" y="122.6" class="st6" width="20.6" height="2.5"/>
		<rect x="414.8" y="126.1" class="st6" width="13.3" height="2.5"/>
		<rect x="429.1" y="126.1" class="st6" width="18.6" height="2.5"/>
		<rect x="414.8" y="129.6" class="st7" width="17.7" height="2.5"/>
		<rect x="414.8" y="133" class="st6" width="23.1" height="2.5"/>
		<rect x="414.8" y="136.5" class="st7" width="13.7" height="2.5"/>
		<rect x="411.6" y="143.5" class="st5" width="7.1" height="2.5"/>
		<rect x="440.8" y="94.8" class="st0" width="2.3" height="2.5"/>
		<rect x="437.9" y="105.2" class="st5" width="4.5" height="2.5"/>
		<rect x="443.4" y="105.2" class="st0" width="2.3" height="2.5"/>
		<rect x="440.3" y="108.7" class="st0" width="2.5" height="2.5"/>
		<rect x="444.2" y="112.2" class="st0" width="1" height="2.5"/>
		<rect x="450.5" y="122.6" class="st0" width="0.7" height="2.5"/>
		<rect x="448.7" y="126.1" class="st0" width="2.5" height="2.5"/>
		<rect x="411.6" y="115.7" class="st0" width="1.3" height="2.5"/>
		<rect x="411.6" y="119.1" class="st7" width="11.6" height="2.5"/>
		<rect x="424.2" y="119.1" class="st0" width="1.3" height="2.5"/>
		<rect x="411.6" y="139.9" class="st0" width="1.3" height="2.5"/>
	</g>
	<g>
		<path class="st9" d="M345.7,159.8c9.2,0,11.3-9.9,11.3-9.9H104.6c0,0,2.1,9.9,11.3,9.9H345.7z"/>
		<path class="st10" d="M338.4,149.9H124.2c-2.9,0-5.3-2.4-5.3-5.3V10.7c0-2.9,2.4-5.3,5.3-5.3h214.2c2.9,0,5.3,2.4,5.3,5.3v133.9
			C343.7,147.5,341.3,149.9,338.4,149.9z"/>
		<rect x="127.4" y="13.6" class="st4" width="207.7" height="128.2"/>
		<path class="st11" d="M252,148.7L252,148.7c0,2.5-2,4.5-4.5,4.5h-33.5c-2.5,0-4.5-2-4.5-4.5H252z"/>
		<rect x="126.4" y="143.9" class="st12" width="211.6" height="5.7"/>
		<g>
			<rect x="248.6" y="24.3" class="st2" width="54.6" height="2.5"/>
			<rect x="248.6" y="27.8" class="st2" width="63.9" height="2.5"/>
			<rect x="248.6" y="31.3" class="st2" width="50.2" height="2.5"/>
			<rect x="248.6" y="34.7" class="st5" width="32" height="2.5"/>
			<rect x="284.9" y="38.2" class="st6" width="4.8" height="2.5"/>
			<rect x="254.6" y="38.2" class="st6" width="29.3" height="2.5"/>
			<rect x="254.6" y="41.7" class="st6" width="18.1" height="2.5"/>
			<rect x="273.7" y="41.7" class="st8" width="7.2" height="2.5"/>
			<rect x="282.6" y="55.6" class="st8" width="7.2" height="2.5"/>
			<rect x="275.7" y="59.1" class="st8" width="12" height="2.5"/>
			<rect x="295.8" y="72.9" class="st8" width="12" height="2.5"/>
			<rect x="298.7" y="83.4" class="st8" width="13.8" height="2.5"/>
			<rect x="283.6" y="86.8" class="st8" width="8.9" height="2.5"/>
			<rect x="293.5" y="86.8" class="st5" width="12.5" height="2.5"/>
			<rect x="289.9" y="100.7" class="st8" width="5.9" height="2.5"/>
			<rect x="278.1" y="107.7" class="st8" width="13.2" height="2.5"/>
			<rect x="271.9" y="111.2" class="st8" width="7.5" height="2.5"/>
			<rect x="280.4" y="104.2" class="st6" width="11.6" height="2.5"/>
			<rect x="281.9" y="41.7" class="st5" width="7.2" height="2.5"/>
			<rect x="288.8" y="59.1" class="st5" width="11.8" height="2.5"/>
			<rect x="308.8" y="72.9" class="st5" width="6" height="2.5"/>
			<rect x="263" y="93.8" class="st7" width="6" height="2.5"/>
			<rect x="313.5" y="83.4" class="st5" width="2.5" height="2.5"/>
			<rect x="296.8" y="100.7" class="st5" width="2.5" height="2.5"/>
			<rect x="292.3" y="107.7" class="st5" width="4.1" height="2.5"/>
			<rect x="280.4" y="111.2" class="st5" width="5.8" height="2.5"/>
			<rect x="254.6" y="45.2" class="st6" width="22.1" height="2.5"/>
			<rect x="277.7" y="45.2" class="st6" width="16.8" height="2.5"/>
			<rect x="248.6" y="48.6" class="st0" width="2.5" height="2.5"/>
			<rect x="260.9" y="52.1" class="st0" width="2.5" height="2.5"/>
			<rect x="281.6" y="34.7" class="st0" width="2.5" height="2.5"/>
			<rect x="248.6" y="52.1" class="st7" width="11.3" height="2.5"/>
			<rect x="254.6" y="55.6" class="st6" width="27" height="2.5"/>
			<rect x="254.6" y="59.1" class="st6" width="20.1" height="2.5"/>
			<rect x="254.6" y="62.5" class="st6" width="28" height="2.5"/>
			<rect x="283.6" y="62.5" class="st6" width="21.4" height="2.5"/>
			<rect x="295.8" y="79.9" class="st6" width="21.4" height="2.5"/>
			<rect x="254.6" y="72.9" class="st6" width="40.3" height="2.5"/>
			<rect x="254.6" y="76.4" class="st6" width="30.9" height="2.5"/>
			<rect x="286.5" y="76.4" class="st6" width="37.2" height="2.5"/>
			<rect x="254.6" y="79.9" class="st6" width="40.3" height="2.5"/>
			<rect x="254.6" y="83.4" class="st6" width="43.1" height="2.5"/>
			<rect x="254.6" y="86.8" class="st6" width="28" height="2.5"/>
			<rect x="248.6" y="93.8" class="st5" width="13.4" height="2.5"/>
			<rect x="254.6" y="97.3" class="st6" width="20.1" height="2.5"/>
			<rect x="275.7" y="97.3" class="st6" width="8.4" height="2.5"/>
			<rect x="254.6" y="100.7" class="st6" width="34.3" height="2.5"/>
			<rect x="254.6" y="104.2" class="st6" width="24.8" height="2.5"/>
			<rect x="254.6" y="107.7" class="st6" width="22.5" height="2.5"/>
			<rect x="254.6" y="111.2" class="st6" width="16.4" height="2.5"/>
			<rect x="248.6" y="118.1" class="st5" width="9.4" height="2.5"/>
			<rect x="248.6" y="121.6" class="st5" width="12.3" height="2.5"/>
			<rect x="295.4" y="45.2" class="st0" width="1.3" height="2.5"/>
			<rect x="290.8" y="55.6" class="st5" width="4.1" height="2.5"/>
			<rect x="295.8" y="55.6" class="st0" width="1.3" height="2.5"/>
			<rect x="301.5" y="59.1" class="st0" width="1.3" height="2.5"/>
			<rect x="306" y="62.5" class="st0" width="1.3" height="2.5"/>
			<rect x="315.8" y="72.9" class="st0" width="1.3" height="2.5"/>
			<rect x="324.7" y="76.4" class="st0" width="1.3" height="2.5"/>
			<rect x="318.3" y="79.9" class="st0" width="1.3" height="2.5"/>
			<rect x="316.9" y="83.4" class="st0" width="1.3" height="2.5"/>
			<rect x="248.6" y="66" class="st0" width="2.5" height="2.5"/>
			<rect x="248.6" y="69.5" class="st7" width="21.7" height="2.5"/>
			<rect x="271.3" y="69.5" class="st0" width="2.5" height="2.5"/>
			<rect x="307" y="86.8" class="st0" width="1.3" height="2.5"/>
			<rect x="300.3" y="100.7" class="st0" width="1.3" height="2.5"/>
			<rect x="297.3" y="107.7" class="st0" width="1.3" height="2.5"/>
			<rect x="287.2" y="111.2" class="st0" width="1.3" height="2.5"/>
			<rect x="293" y="104.2" class="st0" width="1.3" height="2.5"/>
			<rect x="248.6" y="90.3" class="st0" width="2.5" height="2.5"/>
			<rect x="270" y="93.8" class="st0" width="2.5" height="2.5"/>
			<rect x="285" y="97.3" class="st0" width="1.3" height="2.5"/>
			<rect x="248.6" y="114.6" class="st0" width="2.5" height="2.5"/>
			<g>
				<rect x="240.5" y="24.3" class="st2" width="2.5" height="2.5"/>
				<rect x="240.5" y="27.7" class="st2" width="2.5" height="2.5"/>
				<rect x="240.5" y="31.3" class="st2" width="2.5" height="2.5"/>
				<rect x="240.5" y="34.7" class="st2" width="2.5" height="2.5"/>
				<rect x="240.5" y="38.2" class="st2" width="2.5" height="2.5"/>
				<rect x="240.5" y="41.6" class="st2" width="2.5" height="2.5"/>
				<rect x="240.5" y="45.2" class="st2" width="2.5" height="2.5"/>
				<rect x="240.5" y="48.6" class="st2" width="2.5" height="2.5"/>
				<rect x="240.5" y="52.1" class="st2" width="2.5" height="2.5"/>
				<rect x="240.5" y="55.5" class="st2" width="2.5" height="2.5"/>
				<rect x="240.5" y="59.1" class="st2" width="2.5" height="2.5"/>
				<rect x="240.5" y="62.5" class="st2" width="2.5" height="2.5"/>
				<rect x="240.5" y="66" class="st2" width="2.5" height="2.5"/>
				<rect x="240.5" y="69.5" class="st2" width="2.5" height="2.5"/>
				<rect x="240.5" y="72.9" class="st2" width="2.5" height="2.5"/>
				<rect x="240.5" y="76.4" class="st2" width="2.5" height="2.5"/>
				<rect x="240.5" y="79.9" class="st2" width="2.5" height="2.5"/>
				<rect x="240.5" y="83.4" class="st2" width="2.5" height="2.5"/>
				<rect x="240.5" y="86.8" class="st2" width="2.5" height="2.5"/>
				<rect x="240.5" y="90.3" class="st2" width="2.5" height="2.5"/>
				<rect x="240.5" y="93.8" class="st2" width="2.5" height="2.5"/>
				<rect x="240.5" y="97.3" class="st2" width="2.5" height="2.5"/>
				<rect x="240.5" y="100.7" class="st2" width="2.5" height="2.5"/>
				<rect x="240.5" y="104.2" class="st2" width="2.5" height="2.5"/>
				<rect x="240.5" y="107.6" class="st2" width="2.5" height="2.5"/>
				<rect x="240.5" y="111.2" class="st2" width="2.5" height="2.5"/>
				<rect x="240.5" y="114.6" class="st2" width="2.5" height="2.5"/>
				<rect x="240.5" y="118.1" class="st2" width="2.5" height="2.5"/>
				<rect x="240.5" y="121.5" class="st2" width="2.5" height="2.5"/>
				<rect x="240.5" y="125.1" class="st2" width="2.5" height="2.5"/>
				<rect x="240.5" y="128.5" class="st2" width="2.5" height="2.5"/>
			</g>
		</g>
		<rect x="127.4" y="13.6" class="st0" width="103.9" height="128.2"/>
	</g>
	<rect x="127.4" y="13.6" class="st1" width="103.9" height="9.7"/>
	<rect x="136.4" y="91.3" class="st1" width="18.3" height="18.3"/>
	<rect x="158.9" y="91.3" class="st1" width="18.3" height="18.3"/>
	<rect x="181.5" y="91.3" class="st1" width="18.3" height="18.3"/>
	<rect x="203.9" y="91.3" class="st1" width="18.3" height="18.3"/>
	<g>
		<rect x="136.4" y="32.3" class="st1" width="18.3" height="3.1"/>
		<rect x="158.9" y="32.3" class="st1" width="18.3" height="3.1"/>
		<rect x="181.5" y="32.3" class="st1" width="18.3" height="3.1"/>
		<rect x="203.9" y="32.3" class="st1" width="18.3" height="3.1"/>
	</g>
	<rect x="136.4" y="41.7" class="st1" width="85.8" height="23.3"/>
	<g>
		<rect x="136.4" y="68.1" class="st2" width="40.7" height="1.3"/>
		<rect x="136.4" y="70.8" class="st2" width="40.7" height="1.3"/>
		<rect x="136.4" y="73.5" class="st2" width="40.7" height="1.3"/>
		<rect x="136.4" y="76.1" class="st2" width="40.7" height="1.3"/>
		<rect x="136.4" y="78.8" class="st2" width="40.7" height="1.3"/>
		<rect x="136.4" y="81.5" class="st2" width="40.7" height="1.3"/>
		<rect x="136.4" y="84.2" class="st2" width="40.7" height="1.3"/>
		<rect x="136.4" y="86.8" class="st2" width="27.7" height="1.3"/>
	</g>
	<g>
		<rect x="181.5" y="112.7" class="st2" width="40.7" height="1.3"/>
		<rect x="181.5" y="115.4" class="st2" width="40.7" height="1.3"/>
		<rect x="181.5" y="118" class="st2" width="40.7" height="1.3"/>
		<rect x="181.5" y="120.7" class="st2" width="40.7" height="1.3"/>
		<rect x="181.5" y="123.3" class="st2" width="40.7" height="1.3"/>
		<rect x="181.5" y="126.1" class="st2" width="40.7" height="1.3"/>
		<rect x="181.5" y="128.7" class="st2" width="40.7" height="1.3"/>
		<rect x="181.5" y="131.4" class="st2" width="27.7" height="1.3"/>
	</g>
	<g>
		<rect x="136.4" y="112.7" class="st2" width="40.7" height="1.3"/>
		<rect x="136.4" y="115.4" class="st2" width="40.7" height="1.3"/>
		<rect x="136.4" y="118" class="st2" width="40.7" height="1.3"/>
		<rect x="136.4" y="120.7" class="st2" width="40.7" height="1.3"/>
		<rect x="136.4" y="123.3" class="st2" width="40.7" height="1.3"/>
		<rect x="136.4" y="126.1" class="st2" width="40.7" height="1.3"/>
		<rect x="136.4" y="128.7" class="st2" width="40.7" height="1.3"/>
		<rect x="136.4" y="131.4" class="st2" width="27.7" height="1.3"/>
	</g>
	<g>
		<rect x="181.5" y="68.1" class="st2" width="40.7" height="1.3"/>
		<rect x="181.5" y="70.8" class="st2" width="40.7" height="1.3"/>
		<rect x="181.5" y="73.5" class="st2" width="40.7" height="1.3"/>
		<rect x="181.5" y="76.1" class="st2" width="40.7" height="1.3"/>
		<rect x="181.5" y="78.8" class="st2" width="40.7" height="1.3"/>
		<rect x="181.5" y="81.5" class="st2" width="40.7" height="1.3"/>
		<rect x="181.5" y="84.2" class="st2" width="40.7" height="1.3"/>
		<rect x="181.5" y="86.8" class="st2" width="36.9" height="1.3"/>
	</g>
	<g>
		<g>
			<path class="st0" d="M179.4,58.2c-2.7,0-4.9-2.2-4.9-4.9c0-2.7,2.2-4.9,4.9-4.9c2.7,0,4.9,2.2,4.9,4.9
				C184.2,56,182,58.2,179.4,58.2z M179.4,48.9c-2.5,0-4.5,2-4.5,4.5c0,2.5,2,4.5,4.5,4.5c2.5,0,4.5-2,4.5-4.5
				C183.8,50.9,181.7,48.9,179.4,48.9z"/>
		</g>
		<polygon class="st0" points="178.4,52.2 178.4,54.5 180.5,53.4 		"/>
	</g>
</g>
</svg>
