<?xml version="1.0" encoding="utf-8"?>
<!-- Generator: Adobe Illustrator 19.2.1, SVG Export Plug-In . SVG Version: 6.00 Build 0)  -->
<svg version="1.1" id="Layer_1" xmlns="http://www.w3.org/2000/svg" xmlns:xlink="http://www.w3.org/1999/xlink" x="0px" y="0px"
	 viewBox="0 0 179.5 229" style="enable-background:new 0 0 179.5 229;" xml:space="preserve">
<style type="text/css">
	.st0{fill:#181431;}
</style>
<g>
	<g>
		<path class="st0" d="M112.4,81.5L92.5,61.6c0,0,0,0,0-0.1c-0.2-0.2-0.4-0.3-0.6-0.5l-0.1-0.1c-0.2-0.1-0.3-0.2-0.5-0.3
			c-0.1,0-0.1-0.1-0.2-0.1c-0.2-0.1-0.4-0.1-0.6-0.2c0,0,0,0-0.1,0l0,0c-0.2,0-0.5-0.1-0.7-0.1h-0.1l0,0l0,0c-0.3,0-0.5,0-0.8,0.1
			c0,0,0,0-0.1,0c-0.7,0.2-1.4,0.5-2,1.1c0,0,0,0,0,0.1L66.8,81.4c-1.6,1.6-1.6,4.2,0,5.8c1.6,1.6,4.2,1.6,5.8,0l13-13V117
			c0,2.3,1.9,4.1,4.1,4.1c2.3,0,4.1-1.9,4.1-4.1V74.4l13,13c1.6,1.6,4.2,1.6,5.8,0C114,85.7,114,83.1,112.4,81.5z"/>
		<g>
			<g>
				<path class="st0" d="M19,130.8l-5.4,3.1c0,0,1.5,2.4,2.9,4.8c0.7,1.2,1.6,2.3,2.2,3.2c0.6,0.8,1.1,1.4,1.1,1.4l5-3.7
					c0,0-0.4-0.5-1-1.3s-1.5-1.8-2.1-2.9C20.3,133,19,130.8,19,130.8z"/>
				<path class="st0" d="M11.6,113.5l-6,1.7c0,0,0.2,0.7,0.5,1.7c0.4,1,0.8,2.3,1.3,3.7c0.5,1.3,1,2.7,1.3,3.6
					c0.2,0.5,0.4,0.9,0.5,1.2s0.2,0.4,0.2,0.4l5.7-2.5c0,0-0.1-0.1-0.2-0.4c-0.1-0.3-0.3-0.6-0.5-1.1c-0.3-0.9-0.8-2.2-1.2-3.4
					c-0.5-1.2-0.9-2.5-1.2-3.4C11.8,114.1,11.6,113.5,11.6,113.5z"/>
				<path class="st0" d="M8.5,95l-6.2,0.3c0,0,0,0.7,0.1,1.8c0.1,1.1,0.1,2.5,0.3,3.9c0.4,2.8,0.9,5.6,0.9,5.6l6.1-1.1
					c0,0-0.4-2.6-0.8-5.2c-0.3-1.3-0.2-2.6-0.3-3.6C8.6,95.7,8.5,95,8.5,95z"/>
			</g>
			<g>
				<path class="st0" d="M61.2,166.7l-2.2,5.8c0,0,0.7,0.2,1.7,0.6c1,0.3,2.3,0.9,3.7,1.2c2.7,0.7,5.5,1.4,5.5,1.4l1.4-6
					c0,0-2.5-0.7-5.1-1.3c-1.3-0.3-2.5-0.9-3.4-1.2C61.8,166.9,61.2,166.7,61.2,166.7z"/>
				<path class="st0" d="M44.4,158.2l-3.4,5.2c0,0,2.4,1.5,4.8,2.9c1.2,0.8,2.4,1.5,3.4,1.9c1,0.5,1.6,0.8,1.6,0.8l2.8-5.6
					c0,0-0.6-0.3-1.5-0.7s-2-1-3.2-1.8C46.7,159.5,44.4,158.2,44.4,158.2z"/>
				<path class="st0" d="M30.2,146l-4.5,4.2c0,0,0.5,0.5,1.2,1.3s1.7,1.7,2.8,2.7c2.1,1.9,4.2,3.8,4.2,3.8l4-4.8
					c0,0-1.9-1.8-3.9-3.5c-1-0.9-2-1.7-2.6-2.5C30.6,146.5,30.2,146,30.2,146z"/>
			</g>
			<g>
				<path class="st0" d="M116.6,167l2.1,5.8c0,0,0.7-0.2,1.7-0.6c1-0.4,2.3-0.8,3.6-1.4c2.5-1.2,5.1-2.5,5.1-2.5l-2.8-5.5
					c0,0-2.4,1.1-4.7,2.3c-1.2,0.6-2.5,0.9-3.4,1.3C117.2,166.8,116.6,167,116.6,167z"/>
				<path class="st0" d="M98.3,171.3l0.7,6.2c0,0,2.8-0.4,5.6-0.9c1.4-0.2,2.8-0.4,3.8-0.7s1.7-0.4,1.7-0.4l-1.5-6
					c0,0-0.6,0.2-1.6,0.4c-0.9,0.3-2.2,0.5-3.5,0.7C100.9,170.9,98.3,171.3,98.3,171.3z"/>
				<path class="st0" d="M79.6,171.1l-0.7,6.2c0,0,0.7,0.1,1.7,0.3c1.1,0.1,2.5,0.1,3.9,0.2c1.4,0.1,2.8,0.1,3.9,0.2
					c1.1,0.1,1.8,0,1.8,0v-6.2c0,0-0.7,0.1-1.6,0c-1-0.1-2.3-0.1-3.6-0.2c-1.3-0.1-2.6-0.1-3.6-0.2
					C80.2,171.2,79.6,171.1,79.6,171.1z"/>
			</g>
			<g>
				<path class="st0" d="M159.3,131.7l5.4,3.1c0,0,0.4-0.6,0.9-1.5c0.6-0.9,1.2-2.2,1.8-3.4c1.2-2.5,2.5-5.1,2.5-5.1l-5.7-2.4
					c0,0-1.1,2.4-2.3,4.7c-0.6,1.2-1.1,2.4-1.7,3.2S159.3,131.7,159.3,131.7z"/>
				<path class="st0" d="M147.9,146.7l4.5,4.3c0,0,1.9-2.1,3.8-4.2c1-1,1.7-2.2,2.4-3.1c0.6-0.8,1.1-1.4,1.1-1.4l-5-3.7
					c0,0-0.4,0.5-1,1.3s-1.3,1.9-2.2,2.9C149.7,144.8,147.9,146.7,147.9,146.7z"/>
				<path class="st0" d="M133.5,158.7l3.4,5.2c0,0,0.6-0.3,1.5-0.9c0.8-0.6,2-1.5,3.1-2.3s2.3-1.7,3.1-2.3c0.8-0.7,1.3-1.2,1.3-1.2
					l-4-4.7c0,0-0.5,0.5-1.2,1.1c-0.8,0.6-1.8,1.4-2.9,2.2c-1.1,0.8-2.1,1.6-2.9,2.2C134.1,158.3,133.5,158.7,133.5,158.7z"/>
			</g>
			<g>
				<path class="st0" d="M169.2,77.2l6.1-1c0,0-0.1-0.7-0.3-1.7c-0.1-1.1-0.5-2.4-0.8-3.8c-0.7-2.7-1.4-5.5-1.4-5.5l-5.9,1.8
					c0,0,0.7,2.5,1.3,5.1c0.3,1.3,0.7,2.5,0.8,3.5C169.1,76.6,169.2,77.2,169.2,77.2z"/>
				<path class="st0" d="M170.2,96l6.2,0.4c0,0,0.1-2.8,0.3-5.6c-0.1-2.8-0.3-5.6-0.3-5.6l-6.2,0.4c0,0,0.1,2.6,0.3,5.2
					C170.3,93.3,170.2,96,170.2,96z"/>
				<path class="st0" d="M166.9,114.4l5.9,1.8c0,0,0.7-2.7,1.4-5.5c0.4-1.4,0.7-2.7,0.8-3.8c0.2-1,0.3-1.7,0.3-1.7l-6.1-1
					c0,0-0.1,0.6-0.2,1.6c-0.1,1-0.4,2.3-0.8,3.5C167.6,111.9,166.9,114.4,166.9,114.4z"/>
			</g>
			<g>
				<path class="st0" d="M141.9,29l4-4.7c0,0-0.5-0.5-1.3-1.2c-0.8-0.6-2-1.5-3.1-2.3s-2.3-1.7-3.1-2.3c-0.9-0.6-1.5-0.9-1.5-0.9
					l-3.4,5.2c0,0,0.6,0.3,1.4,0.9c0.8,0.6,1.8,1.4,2.9,2.2c1.1,0.8,2.1,1.6,2.9,2.2C141.4,28.6,141.9,29,141.9,29z"/>
				<path class="st0" d="M154.6,42.8l5-3.7c0,0-0.4-0.6-1.1-1.4c-0.7-0.8-1.4-2-2.4-3.1c-1.9-2.1-3.8-4.2-3.8-4.2l-4.5,4.3
					c0,0,1.8,1.9,3.5,3.9c0.9,1,1.6,2.1,2.2,2.8C154.3,42.3,154.6,42.8,154.6,42.8z"/>
				<path class="st0" d="M164,59l5.7-2.4c0,0-1.2-2.5-2.5-5.1c-0.6-1.3-1.2-2.6-1.8-3.4c-0.5-0.9-0.9-1.5-0.9-1.5l-5.3,3.2
					c0,0,0.3,0.6,0.9,1.4c0.6,0.8,1.1,2,1.7,3.2C162.9,56.7,164,59,164,59z"/>
			</g>
			<g>
				<path class="st0" d="M89.9,9.7V3.5c0,0-0.7,0-1.8,0c-1.1,0.1-2.5,0.1-3.9,0.2s-2.8,0.1-3.9,0.2c-1,0.2-1.7,0.3-1.7,0.3l0.8,6.2
					c0,0,0.6-0.1,1.6-0.2c1,0,2.3-0.1,3.6-0.2c1.3-0.1,2.6-0.1,3.6-0.2C89.3,9.7,89.9,9.7,89.9,9.7z"/>
				<path class="st0" d="M108.6,12.1l1.5-6c0,0-0.7-0.2-1.7-0.4c-1-0.3-2.4-0.5-3.8-0.7C101.8,4.6,99,4.1,99,4.1l-0.7,6.2
					c0,0,2.6,0.4,5.2,0.8c1.3,0.2,2.6,0.4,3.5,0.7C107.9,11.9,108.6,12.1,108.6,12.1z"/>
				<path class="st0" d="M126.1,18.5l2.8-5.5c0,0-2.5-1.2-5.1-2.5c-1.3-0.6-2.6-1-3.6-1.4s-1.7-0.6-1.7-0.6l-2.1,5.8
					c0,0,0.6,0.2,1.5,0.6s2.2,0.7,3.4,1.3C123.8,17.4,126.1,18.5,126.1,18.5z"/>
			</g>
			<g>
				<path class="st0" d="M37.7,28.3l-4-4.8c0,0-2.1,1.9-4.2,3.8c-1,0.9-2.1,1.9-2.8,2.7c-0.7,0.8-1.2,1.3-1.2,1.3l4.5,4.2
					c0,0,0.4-0.5,1.1-1.2c0.6-0.8,1.6-1.6,2.6-2.5C35.8,30.1,37.7,28.3,37.7,28.3z"/>
				<path class="st0" d="M53.5,18.1l-2.8-5.6c0,0-0.6,0.3-1.6,0.8c-1,0.4-2.2,1.1-3.4,1.9c-2.4,1.5-4.8,2.9-4.8,2.9l3.5,5.2
					c0,0,2.2-1.4,4.5-2.7c1.1-0.7,2.2-1.4,3.2-1.8C52.9,18.4,53.5,18.1,53.5,18.1z"/>
				<path class="st0" d="M71.1,11.8l-1.4-6c0,0-2.7,0.7-5.5,1.4c-1.4,0.3-2.7,0.9-3.7,1.3s-1.7,0.6-1.7,0.6l2.2,5.8
					c0,0,0.6-0.2,1.5-0.6c0.9-0.3,2.1-0.9,3.4-1.2C68.6,12.5,71.1,11.8,71.1,11.8z"/>
			</g>
			<g>
				<path class="st0" d="M9.7,76.1L3.6,75c0,0-0.4,2.8-0.9,5.6c-0.3,1.4-0.2,2.8-0.3,3.9s-0.1,1.8-0.1,1.8l6.2,0.3
					c0,0,0-0.7,0.1-1.6c0.1-1,0-2.3,0.3-3.6C9.3,78.7,9.7,76.1,9.7,76.1z"/>
				<path class="st0" d="M15.2,58.2l-5.7-2.5c0,0-0.1,0.2-0.2,0.4c-0.1,0.3-0.3,0.7-0.5,1.2c-0.4,1-0.9,2.3-1.3,3.6
					c-0.5,1.3-1,2.7-1.3,3.7s-0.5,1.7-0.5,1.7l6,1.7c0,0,0.1-0.6,0.4-1.6c0.3-0.9,0.8-2.2,1.2-3.4c0.5-1.2,0.9-2.5,1.2-3.4
					c0.2-0.5,0.3-0.8,0.5-1.1C15.1,58.3,15.2,58.2,15.2,58.2z"/>
				<path class="st0" d="M24.7,42l-5-3.7c0,0-0.4,0.6-1.1,1.4c-0.6,0.9-1.6,1.9-2.2,3.2c-1.5,2.4-2.9,4.8-2.9,4.8l5.4,3.1
					c0,0,1.4-2.2,2.7-4.5c0.6-1.2,1.5-2.1,2.1-2.9C24.3,42.6,24.7,42,24.7,42z"/>
			</g>
		</g>
	</g>
	<g>
		<path class="st0" d="M45.3,222.5c2.6,0,4.3-1.6,4.3-4.4V208h3.3v10.1c0,4.6-2.9,7.4-7.6,7.4s-7.7-2.8-7.7-7.4V208h3.3v10.1
			C40.9,220.9,42.6,222.5,45.3,222.5z"/>
		<path class="st0" d="M70.8,214c0,4-2.5,6.3-6.9,6.3h-3.8v5.1h-3.3V208h7.1C68.3,208,70.8,210.2,70.8,214z M67.7,214.1
			c0-2.1-1.4-3.2-3.9-3.2h-3.6v6.4h3.6C66.2,217.3,67.7,216.3,67.7,214.1z"/>
		<path class="st0" d="M76.9,208v14.4h7.5v3H73.6V208H76.9z"/>
		<path class="st0" d="M104.1,216.7c0,5-4,8.8-9.3,8.8c-5.2,0-9.3-3.8-9.3-8.8s4-8.8,9.3-8.8S104.1,211.7,104.1,216.7z M89,216.7
			c0,3.3,2.7,5.9,5.9,5.9s5.8-2.6,5.8-5.9s-2.6-5.8-5.8-5.8S89,213.4,89,216.7z"/>
		<path class="st0" d="M117.9,221.7h-8.5l-1.5,3.7h-3.4l7.6-17.4h3.4l7.5,17.4h-3.6L117.9,221.7z M116.8,218.8l-3-7.3l-3.1,7.3
			H116.8z"/>
		<path class="st0" d="M141.4,216.7c0,5.1-3.8,8.7-9.2,8.7h-7.1V208h7.2C137.7,208,141.4,211.6,141.4,216.7z M138,216.7
			c0-3.4-2.5-5.8-5.7-5.8h-3.8v11.5h4C135.7,222.4,138,220.1,138,216.7z"/>
	</g>
</g>
</svg>
